<mxfile host="Electron" modified="2023-08-27T03:23:07.592Z" agent="Mozilla/5.0 (Windows NT 10.0; Win64; x64) AppleWebKit/537.36 (KHTML, like Gecko) draw.io/21.6.8 Chrome/114.0.5735.289 Electron/25.5.0 Safari/537.36" etag="yEb3Z0HejbXYvZxU56aD" version="21.6.8" type="device">
  <diagram name="第 1 页" id="m9QU0SZGVcoz0A-4QIuP">
    <mxGraphModel dx="2288" dy="734" grid="1" gridSize="10" guides="1" tooltips="1" connect="1" arrows="1" fold="1" page="1" pageScale="1" pageWidth="827" pageHeight="1169" math="0" shadow="0">
      <root>
        <mxCell id="0" />
        <mxCell id="1" parent="0" />
        <mxCell id="hnO-4jDUsCUn3Nn_t1Lp-64" style="edgeStyle=orthogonalEdgeStyle;rounded=0;orthogonalLoop=1;jettySize=auto;html=1;exitX=0.5;exitY=1;exitDx=0;exitDy=0;entryX=0.633;entryY=-0.122;entryDx=0;entryDy=0;entryPerimeter=0;" edge="1" parent="1" source="hnO-4jDUsCUn3Nn_t1Lp-1" target="hnO-4jDUsCUn3Nn_t1Lp-3">
          <mxGeometry relative="1" as="geometry" />
        </mxCell>
        <mxCell id="hnO-4jDUsCUn3Nn_t1Lp-1" value="火山CR镜像仓库" style="rounded=0;whiteSpace=wrap;html=1;" vertex="1" parent="1">
          <mxGeometry x="200" y="97.5" width="120" height="60" as="geometry" />
        </mxCell>
        <mxCell id="hnO-4jDUsCUn3Nn_t1Lp-59" style="edgeStyle=orthogonalEdgeStyle;rounded=0;orthogonalLoop=1;jettySize=auto;html=1;entryX=0.5;entryY=1;entryDx=0;entryDy=0;" edge="1" parent="1" target="hnO-4jDUsCUn3Nn_t1Lp-30">
          <mxGeometry relative="1" as="geometry">
            <mxPoint x="520" y="210" as="sourcePoint" />
          </mxGeometry>
        </mxCell>
        <mxCell id="hnO-4jDUsCUn3Nn_t1Lp-68" style="edgeStyle=orthogonalEdgeStyle;rounded=0;orthogonalLoop=1;jettySize=auto;html=1;entryX=0.692;entryY=1;entryDx=0;entryDy=0;entryPerimeter=0;exitX=0.62;exitY=0;exitDx=0;exitDy=0;exitPerimeter=0;" edge="1" parent="1" source="hnO-4jDUsCUn3Nn_t1Lp-2" target="hnO-4jDUsCUn3Nn_t1Lp-65">
          <mxGeometry relative="1" as="geometry">
            <mxPoint x="740" y="220" as="sourcePoint" />
          </mxGeometry>
        </mxCell>
        <mxCell id="hnO-4jDUsCUn3Nn_t1Lp-72" style="edgeStyle=orthogonalEdgeStyle;rounded=0;orthogonalLoop=1;jettySize=auto;html=1;exitX=0.75;exitY=0;exitDx=0;exitDy=0;" edge="1" parent="1" source="hnO-4jDUsCUn3Nn_t1Lp-2">
          <mxGeometry relative="1" as="geometry">
            <mxPoint x="845" y="160" as="targetPoint" />
          </mxGeometry>
        </mxCell>
        <mxCell id="hnO-4jDUsCUn3Nn_t1Lp-74" style="edgeStyle=orthogonalEdgeStyle;rounded=0;orthogonalLoop=1;jettySize=auto;html=1;exitX=0.93;exitY=0.004;exitDx=0;exitDy=0;entryX=0.5;entryY=1;entryDx=0;entryDy=0;exitPerimeter=0;" edge="1" parent="1" source="hnO-4jDUsCUn3Nn_t1Lp-2" target="hnO-4jDUsCUn3Nn_t1Lp-70">
          <mxGeometry relative="1" as="geometry" />
        </mxCell>
        <mxCell id="hnO-4jDUsCUn3Nn_t1Lp-2" value="" style="rounded=0;whiteSpace=wrap;html=1;" vertex="1" parent="1">
          <mxGeometry x="200" y="210" width="860" height="590" as="geometry" />
        </mxCell>
        <mxCell id="hnO-4jDUsCUn3Nn_t1Lp-3" value="火山容器服务" style="text;html=1;strokeColor=none;fillColor=none;align=center;verticalAlign=middle;whiteSpace=wrap;rounded=0;" vertex="1" parent="1">
          <mxGeometry x="210" y="210" width="80" height="30" as="geometry" />
        </mxCell>
        <mxCell id="hnO-4jDUsCUn3Nn_t1Lp-4" value="iva算法服务&lt;br&gt;GPU/T4&lt;br&gt;GPU/A30&lt;br&gt;GPU/V100&lt;br&gt;GPU/A100" style="whiteSpace=wrap;html=1;aspect=fixed;" vertex="1" parent="1">
          <mxGeometry x="890" y="415" width="150" height="150" as="geometry" />
        </mxCell>
        <mxCell id="hnO-4jDUsCUn3Nn_t1Lp-51" style="edgeStyle=orthogonalEdgeStyle;rounded=0;orthogonalLoop=1;jettySize=auto;html=1;exitX=0;exitY=0.5;exitDx=0;exitDy=0;entryX=0.5;entryY=0;entryDx=0;entryDy=0;" edge="1" parent="1" source="hnO-4jDUsCUn3Nn_t1Lp-10" target="hnO-4jDUsCUn3Nn_t1Lp-31">
          <mxGeometry relative="1" as="geometry" />
        </mxCell>
        <mxCell id="hnO-4jDUsCUn3Nn_t1Lp-52" value="对接" style="edgeLabel;html=1;align=center;verticalAlign=middle;resizable=0;points=[];" vertex="1" connectable="0" parent="hnO-4jDUsCUn3Nn_t1Lp-51">
          <mxGeometry x="-0.0267" y="-2" relative="1" as="geometry">
            <mxPoint as="offset" />
          </mxGeometry>
        </mxCell>
        <mxCell id="hnO-4jDUsCUn3Nn_t1Lp-10" value="iva 管理模块" style="rounded=0;whiteSpace=wrap;html=1;" vertex="1" parent="1">
          <mxGeometry x="210" y="280" width="120" height="60" as="geometry" />
        </mxCell>
        <mxCell id="hnO-4jDUsCUn3Nn_t1Lp-58" style="edgeStyle=orthogonalEdgeStyle;rounded=0;orthogonalLoop=1;jettySize=auto;html=1;exitX=1;exitY=0.5;exitDx=0;exitDy=0;" edge="1" parent="1" source="hnO-4jDUsCUn3Nn_t1Lp-11" target="hnO-4jDUsCUn3Nn_t1Lp-29">
          <mxGeometry relative="1" as="geometry" />
        </mxCell>
        <mxCell id="hnO-4jDUsCUn3Nn_t1Lp-11" value="iva接入模块" style="rounded=0;whiteSpace=wrap;html=1;" vertex="1" parent="1">
          <mxGeometry x="210" y="370" width="120" height="60" as="geometry" />
        </mxCell>
        <mxCell id="hnO-4jDUsCUn3Nn_t1Lp-12" value="iva算法模块" style="rounded=0;whiteSpace=wrap;html=1;" vertex="1" parent="1">
          <mxGeometry x="210" y="460" width="120" height="60" as="geometry" />
        </mxCell>
        <mxCell id="hnO-4jDUsCUn3Nn_t1Lp-53" style="edgeStyle=orthogonalEdgeStyle;rounded=0;orthogonalLoop=1;jettySize=auto;html=1;exitX=0.5;exitY=1;exitDx=0;exitDy=0;" edge="1" parent="1" source="hnO-4jDUsCUn3Nn_t1Lp-13" target="hnO-4jDUsCUn3Nn_t1Lp-14">
          <mxGeometry relative="1" as="geometry" />
        </mxCell>
        <mxCell id="hnO-4jDUsCUn3Nn_t1Lp-54" style="edgeStyle=orthogonalEdgeStyle;rounded=0;orthogonalLoop=1;jettySize=auto;html=1;exitX=1;exitY=0.5;exitDx=0;exitDy=0;entryX=0;entryY=0.5;entryDx=0;entryDy=0;" edge="1" parent="1" source="hnO-4jDUsCUn3Nn_t1Lp-13" target="hnO-4jDUsCUn3Nn_t1Lp-15">
          <mxGeometry relative="1" as="geometry" />
        </mxCell>
        <mxCell id="hnO-4jDUsCUn3Nn_t1Lp-55" value="RPC" style="edgeLabel;html=1;align=center;verticalAlign=middle;resizable=0;points=[];" vertex="1" connectable="0" parent="hnO-4jDUsCUn3Nn_t1Lp-54">
          <mxGeometry x="-0.03" y="-5" relative="1" as="geometry">
            <mxPoint as="offset" />
          </mxGeometry>
        </mxCell>
        <mxCell id="hnO-4jDUsCUn3Nn_t1Lp-13" value="iva任务模块" style="rounded=0;whiteSpace=wrap;html=1;" vertex="1" parent="1">
          <mxGeometry x="210" y="550" width="120" height="60" as="geometry" />
        </mxCell>
        <mxCell id="hnO-4jDUsCUn3Nn_t1Lp-57" style="edgeStyle=orthogonalEdgeStyle;rounded=0;orthogonalLoop=1;jettySize=auto;html=1;exitX=0;exitY=0.5;exitDx=0;exitDy=0;entryX=0.5;entryY=1;entryDx=0;entryDy=0;" edge="1" parent="1" source="hnO-4jDUsCUn3Nn_t1Lp-14" target="hnO-4jDUsCUn3Nn_t1Lp-16">
          <mxGeometry relative="1" as="geometry" />
        </mxCell>
        <mxCell id="hnO-4jDUsCUn3Nn_t1Lp-14" value="iva结果模块" style="rounded=0;whiteSpace=wrap;html=1;" vertex="1" parent="1">
          <mxGeometry x="210" y="640" width="120" height="60" as="geometry" />
        </mxCell>
        <mxCell id="hnO-4jDUsCUn3Nn_t1Lp-56" style="edgeStyle=orthogonalEdgeStyle;rounded=0;orthogonalLoop=1;jettySize=auto;html=1;" edge="1" parent="1" source="hnO-4jDUsCUn3Nn_t1Lp-15" target="hnO-4jDUsCUn3Nn_t1Lp-4">
          <mxGeometry relative="1" as="geometry" />
        </mxCell>
        <mxCell id="hnO-4jDUsCUn3Nn_t1Lp-15" value="iva算法网关" style="rounded=0;whiteSpace=wrap;html=1;" vertex="1" parent="1">
          <mxGeometry x="580" y="460" width="120" height="60" as="geometry" />
        </mxCell>
        <mxCell id="hnO-4jDUsCUn3Nn_t1Lp-18" style="edgeStyle=orthogonalEdgeStyle;rounded=0;orthogonalLoop=1;jettySize=auto;html=1;exitX=1;exitY=0.5;exitDx=0;exitDy=0;entryX=0;entryY=0.5;entryDx=0;entryDy=0;" edge="1" parent="1" source="hnO-4jDUsCUn3Nn_t1Lp-16" target="hnO-4jDUsCUn3Nn_t1Lp-17">
          <mxGeometry relative="1" as="geometry" />
        </mxCell>
        <mxCell id="hnO-4jDUsCUn3Nn_t1Lp-16" value="火山引擎控制台&lt;br&gt;iva页面" style="rounded=0;whiteSpace=wrap;html=1;" vertex="1" parent="1">
          <mxGeometry x="-473" y="440" width="120" height="60" as="geometry" />
        </mxCell>
        <mxCell id="hnO-4jDUsCUn3Nn_t1Lp-20" style="edgeStyle=orthogonalEdgeStyle;rounded=0;orthogonalLoop=1;jettySize=auto;html=1;exitX=1;exitY=0.5;exitDx=0;exitDy=0;" edge="1" parent="1" source="hnO-4jDUsCUn3Nn_t1Lp-17" target="hnO-4jDUsCUn3Nn_t1Lp-19">
          <mxGeometry relative="1" as="geometry" />
        </mxCell>
        <mxCell id="hnO-4jDUsCUn3Nn_t1Lp-17" value="火山引擎TOP网关" style="rounded=0;whiteSpace=wrap;html=1;" vertex="1" parent="1">
          <mxGeometry x="-320" y="440" width="120" height="60" as="geometry" />
        </mxCell>
        <mxCell id="hnO-4jDUsCUn3Nn_t1Lp-23" style="edgeStyle=orthogonalEdgeStyle;rounded=0;orthogonalLoop=1;jettySize=auto;html=1;exitX=1;exitY=0.5;exitDx=0;exitDy=0;entryX=0;entryY=0.5;entryDx=0;entryDy=0;" edge="1" parent="1" source="hnO-4jDUsCUn3Nn_t1Lp-19" target="hnO-4jDUsCUn3Nn_t1Lp-21">
          <mxGeometry relative="1" as="geometry" />
        </mxCell>
        <mxCell id="hnO-4jDUsCUn3Nn_t1Lp-19" value="内网PLB" style="rounded=0;whiteSpace=wrap;html=1;" vertex="1" parent="1">
          <mxGeometry x="-150" y="440" width="120" height="60" as="geometry" />
        </mxCell>
        <mxCell id="hnO-4jDUsCUn3Nn_t1Lp-24" style="edgeStyle=orthogonalEdgeStyle;rounded=0;orthogonalLoop=1;jettySize=auto;html=1;exitX=1;exitY=0.5;exitDx=0;exitDy=0;entryX=0.003;entryY=0.44;entryDx=0;entryDy=0;entryPerimeter=0;" edge="1" parent="1" source="hnO-4jDUsCUn3Nn_t1Lp-21" target="hnO-4jDUsCUn3Nn_t1Lp-2">
          <mxGeometry relative="1" as="geometry" />
        </mxCell>
        <mxCell id="hnO-4jDUsCUn3Nn_t1Lp-21" value="火山租户VPC" style="rounded=0;whiteSpace=wrap;html=1;" vertex="1" parent="1">
          <mxGeometry x="30" y="440" width="120" height="60" as="geometry" />
        </mxCell>
        <mxCell id="hnO-4jDUsCUn3Nn_t1Lp-27" style="edgeStyle=orthogonalEdgeStyle;rounded=0;orthogonalLoop=1;jettySize=auto;html=1;entryX=0;entryY=0.5;entryDx=0;entryDy=0;" edge="1" parent="1" source="hnO-4jDUsCUn3Nn_t1Lp-25" target="hnO-4jDUsCUn3Nn_t1Lp-16">
          <mxGeometry relative="1" as="geometry">
            <mxPoint x="-498" y="520" as="targetPoint" />
          </mxGeometry>
        </mxCell>
        <mxCell id="hnO-4jDUsCUn3Nn_t1Lp-25" value="Actor" style="shape=umlActor;verticalLabelPosition=bottom;verticalAlign=top;html=1;outlineConnect=0;" vertex="1" parent="1">
          <mxGeometry x="-575" y="440" width="30" height="60" as="geometry" />
        </mxCell>
        <mxCell id="hnO-4jDUsCUn3Nn_t1Lp-26" value="火山用户" style="text;html=1;strokeColor=none;fillColor=none;align=center;verticalAlign=middle;whiteSpace=wrap;rounded=0;" vertex="1" parent="1">
          <mxGeometry x="-590" y="410" width="60" height="30" as="geometry" />
        </mxCell>
        <mxCell id="hnO-4jDUsCUn3Nn_t1Lp-63" style="edgeStyle=orthogonalEdgeStyle;rounded=0;orthogonalLoop=1;jettySize=auto;html=1;exitX=0.75;exitY=1;exitDx=0;exitDy=0;" edge="1" parent="1" source="hnO-4jDUsCUn3Nn_t1Lp-29" target="hnO-4jDUsCUn3Nn_t1Lp-4">
          <mxGeometry relative="1" as="geometry" />
        </mxCell>
        <mxCell id="hnO-4jDUsCUn3Nn_t1Lp-29" value="火山慢直播&lt;br&gt;RTMP/hls" style="rounded=0;whiteSpace=wrap;html=1;" vertex="1" parent="1">
          <mxGeometry x="354" y="97.5" width="120" height="60" as="geometry" />
        </mxCell>
        <mxCell id="hnO-4jDUsCUn3Nn_t1Lp-30" value="火山APM观测治理&lt;br&gt;trace/metrics" style="rounded=0;whiteSpace=wrap;html=1;" vertex="1" parent="1">
          <mxGeometry x="500" y="97.5" width="120" height="60" as="geometry" />
        </mxCell>
        <mxCell id="hnO-4jDUsCUn3Nn_t1Lp-31" value="商品交易平台" style="rounded=0;whiteSpace=wrap;html=1;" vertex="1" parent="1">
          <mxGeometry x="30" y="340" width="120" height="60" as="geometry" />
        </mxCell>
        <mxCell id="hnO-4jDUsCUn3Nn_t1Lp-43" style="edgeStyle=orthogonalEdgeStyle;rounded=0;orthogonalLoop=1;jettySize=auto;html=1;entryX=0;entryY=0.5;entryDx=0;entryDy=0;exitX=1;exitY=0.25;exitDx=0;exitDy=0;" edge="1" parent="1" source="hnO-4jDUsCUn3Nn_t1Lp-46" target="hnO-4jDUsCUn3Nn_t1Lp-1">
          <mxGeometry relative="1" as="geometry">
            <mxPoint x="40" y="130" as="sourcePoint" />
          </mxGeometry>
        </mxCell>
        <mxCell id="hnO-4jDUsCUn3Nn_t1Lp-44" value="push" style="edgeLabel;html=1;align=center;verticalAlign=middle;resizable=0;points=[];" vertex="1" connectable="0" parent="hnO-4jDUsCUn3Nn_t1Lp-43">
          <mxGeometry x="-0.1287" y="4" relative="1" as="geometry">
            <mxPoint as="offset" />
          </mxGeometry>
        </mxCell>
        <mxCell id="hnO-4jDUsCUn3Nn_t1Lp-48" style="edgeStyle=orthogonalEdgeStyle;rounded=0;orthogonalLoop=1;jettySize=auto;html=1;entryX=-0.001;entryY=0.106;entryDx=0;entryDy=0;entryPerimeter=0;exitX=0.5;exitY=1;exitDx=0;exitDy=0;" edge="1" parent="1" source="hnO-4jDUsCUn3Nn_t1Lp-46" target="hnO-4jDUsCUn3Nn_t1Lp-2">
          <mxGeometry relative="1" as="geometry">
            <Array as="points">
              <mxPoint x="-10" y="160" />
              <mxPoint x="-10" y="263" />
              <mxPoint x="199" y="263" />
            </Array>
          </mxGeometry>
        </mxCell>
        <mxCell id="hnO-4jDUsCUn3Nn_t1Lp-49" value="deploy" style="edgeLabel;html=1;align=center;verticalAlign=middle;resizable=0;points=[];" vertex="1" connectable="0" parent="hnO-4jDUsCUn3Nn_t1Lp-48">
          <mxGeometry x="0.2777" y="4" relative="1" as="geometry">
            <mxPoint as="offset" />
          </mxGeometry>
        </mxCell>
        <mxCell id="hnO-4jDUsCUn3Nn_t1Lp-37" value="" style="rounded=0;whiteSpace=wrap;html=1;" vertex="1" parent="1">
          <mxGeometry x="-320" y="75" width="362" height="105" as="geometry" />
        </mxCell>
        <mxCell id="hnO-4jDUsCUn3Nn_t1Lp-38" value="字节 Bytecycle ci平台" style="text;html=1;strokeColor=none;fillColor=none;align=center;verticalAlign=middle;whiteSpace=wrap;rounded=0;" vertex="1" parent="1">
          <mxGeometry x="-315" y="80" width="120" height="30" as="geometry" />
        </mxCell>
        <mxCell id="hnO-4jDUsCUn3Nn_t1Lp-39" value="内部代码仓" style="rounded=0;whiteSpace=wrap;html=1;" vertex="1" parent="1">
          <mxGeometry x="-315" y="120" width="90" height="40" as="geometry" />
        </mxCell>
        <mxCell id="hnO-4jDUsCUn3Nn_t1Lp-50" style="edgeStyle=orthogonalEdgeStyle;rounded=0;orthogonalLoop=1;jettySize=auto;html=1;entryX=0.007;entryY=0.337;entryDx=0;entryDy=0;entryPerimeter=0;" edge="1" parent="1" source="hnO-4jDUsCUn3Nn_t1Lp-40" target="hnO-4jDUsCUn3Nn_t1Lp-37">
          <mxGeometry relative="1" as="geometry" />
        </mxCell>
        <mxCell id="hnO-4jDUsCUn3Nn_t1Lp-40" value="Actor" style="shape=umlActor;verticalLabelPosition=bottom;verticalAlign=top;html=1;outlineConnect=0;" vertex="1" parent="1">
          <mxGeometry x="-400" y="80" width="30" height="60" as="geometry" />
        </mxCell>
        <mxCell id="hnO-4jDUsCUn3Nn_t1Lp-42" value="管理员" style="text;html=1;strokeColor=none;fillColor=none;align=center;verticalAlign=middle;whiteSpace=wrap;rounded=0;" vertex="1" parent="1">
          <mxGeometry x="-413" y="50" width="60" height="30" as="geometry" />
        </mxCell>
        <mxCell id="hnO-4jDUsCUn3Nn_t1Lp-45" value="内部安全编译&lt;br&gt;代码检测" style="rounded=0;whiteSpace=wrap;html=1;" vertex="1" parent="1">
          <mxGeometry x="-200" y="120" width="100" height="40" as="geometry" />
        </mxCell>
        <mxCell id="hnO-4jDUsCUn3Nn_t1Lp-46" value="构建镜像" style="rounded=0;whiteSpace=wrap;html=1;" vertex="1" parent="1">
          <mxGeometry x="-80" y="120" width="110" height="40" as="geometry" />
        </mxCell>
        <mxCell id="hnO-4jDUsCUn3Nn_t1Lp-60" value="日志服务" style="rounded=0;whiteSpace=wrap;html=1;" vertex="1" parent="1">
          <mxGeometry x="354" y="720" width="120" height="60" as="geometry" />
        </mxCell>
        <mxCell id="hnO-4jDUsCUn3Nn_t1Lp-61" value="事件监控" style="rounded=0;whiteSpace=wrap;html=1;" vertex="1" parent="1">
          <mxGeometry x="570" y="720" width="120" height="60" as="geometry" />
        </mxCell>
        <mxCell id="hnO-4jDUsCUn3Nn_t1Lp-62" value="prometheus监控" style="rounded=0;whiteSpace=wrap;html=1;" vertex="1" parent="1">
          <mxGeometry x="770" y="720" width="120" height="60" as="geometry" />
        </mxCell>
        <mxCell id="hnO-4jDUsCUn3Nn_t1Lp-67" style="edgeStyle=orthogonalEdgeStyle;rounded=0;orthogonalLoop=1;jettySize=auto;html=1;entryX=0.593;entryY=0;entryDx=0;entryDy=0;entryPerimeter=0;" edge="1" parent="1" source="hnO-4jDUsCUn3Nn_t1Lp-65" target="hnO-4jDUsCUn3Nn_t1Lp-2">
          <mxGeometry relative="1" as="geometry">
            <mxPoint x="650" y="210" as="targetPoint" />
          </mxGeometry>
        </mxCell>
        <mxCell id="hnO-4jDUsCUn3Nn_t1Lp-65" value="火山MongoDB" style="rounded=0;whiteSpace=wrap;html=1;" vertex="1" parent="1">
          <mxGeometry x="650" y="97.5" width="120" height="60" as="geometry" />
        </mxCell>
        <mxCell id="hnO-4jDUsCUn3Nn_t1Lp-71" style="edgeStyle=orthogonalEdgeStyle;rounded=0;orthogonalLoop=1;jettySize=auto;html=1;entryX=0.767;entryY=0.001;entryDx=0;entryDy=0;entryPerimeter=0;" edge="1" parent="1" source="hnO-4jDUsCUn3Nn_t1Lp-66" target="hnO-4jDUsCUn3Nn_t1Lp-2">
          <mxGeometry relative="1" as="geometry" />
        </mxCell>
        <mxCell id="hnO-4jDUsCUn3Nn_t1Lp-66" value="火山RocketMQ" style="rounded=0;whiteSpace=wrap;html=1;" vertex="1" parent="1">
          <mxGeometry x="800" y="97.5" width="120" height="60" as="geometry" />
        </mxCell>
        <mxCell id="hnO-4jDUsCUn3Nn_t1Lp-73" style="edgeStyle=orthogonalEdgeStyle;rounded=0;orthogonalLoop=1;jettySize=auto;html=1;exitX=0.25;exitY=1;exitDx=0;exitDy=0;entryX=0.896;entryY=0.002;entryDx=0;entryDy=0;entryPerimeter=0;" edge="1" parent="1" source="hnO-4jDUsCUn3Nn_t1Lp-70" target="hnO-4jDUsCUn3Nn_t1Lp-2">
          <mxGeometry relative="1" as="geometry" />
        </mxCell>
        <mxCell id="hnO-4jDUsCUn3Nn_t1Lp-70" value="火山Resdis" style="rounded=0;whiteSpace=wrap;html=1;" vertex="1" parent="1">
          <mxGeometry x="940" y="100" width="120" height="60" as="geometry" />
        </mxCell>
      </root>
    </mxGraphModel>
  </diagram>
</mxfile>
